{"title":"Ishq Garaari (2013) DVDRip - XviD - 1CD - Esub - [DDR]","uid":9424499,"size":729922845,"categoryP":"video","categoryS":"movies","magnet":"?xt=urn:btih:da6229edde460d9a4ae1f6424361568a667191e1&amp;dn=Ishq+Garaari+%282013%29+DVDRip+-+XviD+-+1CD+-+Esub+-+%5BDDR%5D&amp;tr=udp%3A%2F%2Ftracker.openbittorrent.com%3A80&amp;tr=udp%3A%2F%2Fopen.demonii.com%3A1337&amp;tr=udp%3A%2F%2Ftracker.coppersurfer.tk%3A6969&amp;tr=udp%3A%2F%2Fexodus.desync.com%3A6969","seeders":2,"leechers":1,"uploader":"SaM","files":-1,"time":1388663076,"description":"Movie Info\n---------------------------------------------------------------------------------------------------------------------------------------\n\nMovie Name : Ishq Garaari\nStarring : Sharry Maan, Rannvijay Singh, Mandy Takhar, Gulzar Chahal, Miss Pooja\nDirected : Dheeraj Rattan\nMovie Release Date : 25 Oct 2013\nRipper : AnMoL\nSource : DVD9 My Own Collection\nAudio : Punjabi\nSubtitle : English\n\n---------------------------------------------------------------------------------------------------------------------------------------\nTech Info\n---------------------------------------------------------------------------------------------------------------------------------------\n\nFormat : AVI\nFormat/Info : Audio Video Interleave\nFile size : 696 MiB\nDuration : 2h 5mn\nOverall bit rate : 777 Kbps\n\nVideo\nCodec ID : XVID\nCodec ID/Hint : XviD\nDuration : 2h 5mn\nBit rate : 688 Kbps\nWidth : 656 pixels\nHeight : 272 pixels\nDisplay aspect ratio : 2.40:1\nFrame rate : 23.976 fps\nColor space : YUV\nChroma subsampling : 4:2:0\nBit depth : 8 bits\nScan type : Progressive\nCompression mode : Lossy\nStream size : 616 MiB (89%)\n\nAudio\nID : 1\nFormat : MPEG Audio\nFormat version : Version 1\nFormat profile : Layer 3\nMode : Joint stereo\nMode extension : MS Stereo\nCodec ID : 55\nCodec ID/Hint : MP3\nDuration : 2h 5mn\nBit rate mode : Constant\nBit rate : 80.0 Kbps\nChannel(s) : 2 channels\nSampling rate : 32.0 KHz\nCompression mode : Lossy\nStream size : 71.6 MiB (10%)\n\n---------------------------------------------------------------------------------------------------------------------------------------\nScreen Shot\n---------------------------------------------------------------------------------------------------------------------------------------\n &lt;a href=&quot;\nhttp://imageshack.us/a/img10/3452/wk90.png&quot; rel=&quot;nofollow&quot; target=&quot;_NEW&quot;&gt;\nhttp://imageshack.us/a/img10/3452/wk90.png&lt;/a&gt; &lt;a href=&quot;\nhttp://imageshack.us/a/img191/5056/1c10.png&quot; rel=&quot;nofollow&quot; target=&quot;_NEW&quot;&gt;\nhttp://imageshack.us/a/img191/5056/1c10.png&lt;/a&gt; &lt;a href=&quot;\nhttp://imageshack.us/a/img203/3589/5ti9.png&quot; rel=&quot;nofollow&quot; target=&quot;_NEW&quot;&gt;\nhttp://imageshack.us/a/img203/3589/5ti9.png&lt;/a&gt; &lt;a href=&quot;\nhttp://imageshack.us/a/img600/7689/hd0z.png&quot; rel=&quot;nofollow&quot; target=&quot;_NEW&quot;&gt;\nhttp://imageshack.us/a/img600/7689/hd0z.png&lt;/a&gt; &lt;a href=&quot;\nhttp://imageshack.us/a/img713/850/aj0q.png&quot; rel=&quot;nofollow&quot; target=&quot;_NEW&quot;&gt;\nhttp://imageshack.us/a/img713/850/aj0q.png&lt;/a&gt; &lt;a href=&quot;\nhttp://imageshack.us/a/img196/9347/0goh.png&quot; rel=&quot;nofollow&quot; target=&quot;_NEW&quot;&gt;\nhttp://imageshack.us/a/img196/9347/0goh.png&lt;/a&gt; &lt;a href=&quot;\nhttp://imageshack.us/a/img843/3715/uzah.png&quot; rel=&quot;nofollow&quot; target=&quot;_NEW&quot;&gt;\nhttp://imageshack.us/a/img843/3715/uzah.png&lt;/a&gt;\n\n","torrent":{"xt":"urn:btih:da6229edde460d9a4ae1f6424361568a667191e1","amp;dn":"Ishq+Garaari+%282013%29+DVDRip+-+XviD+-+1CD+-+Esub+-+%5BDDR%5D","amp;tr":["udp%3A%2F%2Ftracker.openbittorrent.com%3A80","udp%3A%2F%2Fopen.demonii.com%3A1337","udp%3A%2F%2Ftracker.coppersurfer.tk%3A6969","udp%3A%2F%2Fexodus.desync.com%3A6969"],"infoHash":"da6229edde460d9a4ae1f6424361568a667191e1","infoHashBuffer":{"type":"Buffer","data":[218,98,41,237,222,70,13,154,74,225,246,66,67,97,86,138,102,113,145,225]},"announce":[],"urlList":[]}}